<svg width="32" height="32" viewBox="0 0 32 32" fill="none" xmlns="http://www.w3.org/2000/svg">
<path d="M15.9998 2.66667C14.2489 2.66667 12.5151 3.01155 10.8974 3.68161C9.27972 4.35167 7.80986 5.3338 6.57175 6.57191C4.07126 9.0724 2.6665 12.4638 2.6665 16C2.6665 19.5362 4.07126 22.9276 6.57175 25.4281C7.80986 26.6662 9.27972 27.6483 10.8974 28.3184C12.5151 28.9885 14.2489 29.3333 15.9998 29.3333C19.5361 29.3333 22.9274 27.9286 25.4279 25.4281C27.9284 22.9276 29.3332 19.5362 29.3332 16H26.6665C26.6665 18.829 25.5427 21.5421 23.5423 23.5425C21.5419 25.5429 18.8288 26.6667 15.9998 26.6667C13.1709 26.6667 10.4578 25.5429 8.45736 23.5425C6.45698 21.5421 5.33317 18.829 5.33317 16C5.33317 13.171 6.45698 10.4579 8.45736 8.45753C10.4578 6.45714 13.1709 5.33334 15.9998 5.33334V2.66667ZM25.0398 4.00001C24.7999 4.00203 24.5702 4.09772 24.3998 4.26667L22.7732 5.88L26.1065 9.21334L27.7332 7.6C28.0798 7.25334 28.0798 6.66667 27.7332 6.33334L25.6665 4.26667C25.4932 4.09334 25.2665 4.00001 25.0398 4.00001ZM21.8265 6.82667L11.9998 16.6667V20H15.3332L25.1598 10.16L21.8265 6.82667Z" fill="black"/>
</svg>
